<svg xmlns="http://www.w3.org/2000/svg" width="165" height="24" viewBox="0 0 165 24" fill="none">
  <path d="M4.01615 4.02809V7.95728H12.7271V11.5799H4.01615V18.6274H0V0.411011H13.9001V4.03367L4.01615 4.02809Z" fill="black"/>
  <path d="M16.3521 18.6274V0.397095H20.3151V18.6274H16.3521Z" fill="black"/>
  <path d="M36.5504 12.5386C36.5504 12.6752 36.528 12.8424 36.5113 13.0318H26.7837C26.9153 13.8348 27.3377 14.5616 27.9707 15.0745C28.6163 15.5489 29.4037 15.7915 30.205 15.7628C30.8131 15.7734 31.4169 15.6587 31.9785 15.4256C32.5731 15.1511 33.1193 14.7822 33.5955 14.3332L35.8661 16.3368C35.2168 17.1431 34.3965 17.796 33.4643 18.2485C32.4306 18.7245 31.3012 18.9571 30.1631 18.9284C29.169 18.9365 28.1821 18.7598 27.2529 18.4073C26.3859 18.0766 25.596 17.572 24.932 16.9248C24.2768 16.2748 23.7584 15.5008 23.4071 14.6481C23.0278 13.7186 22.8379 12.7229 22.8486 11.7193V11.6831C22.8423 10.7219 23.0137 9.76779 23.3541 8.86858C23.674 8.01249 24.1567 7.22616 24.7756 6.55287C25.4087 5.86787 26.1794 5.32373 27.0374 4.95593C27.8955 4.58813 28.8216 4.40493 29.7553 4.41829C30.799 4.3929 31.8347 4.60643 32.7828 5.0425C33.6066 5.43591 34.3326 6.007 34.9082 6.71449C35.4797 7.43139 35.9048 8.25317 36.1594 9.13331C36.4303 10.0584 36.5667 11.0175 36.5644 11.9813V12.0342C36.5644 12.2404 36.5588 12.3993 36.5504 12.5386ZM31.7634 8.41157C31.5077 8.13865 31.1958 7.92413 30.8492 7.78272C30.5026 7.64131 30.1295 7.57635 29.7553 7.59229C29.3807 7.57731 29.0071 7.64157 28.6591 7.78085C28.3111 7.92012 27.9965 8.13127 27.7361 8.40042C27.1895 9.00537 26.839 9.76113 26.7307 10.5684H32.7046C32.6233 9.76932 32.2943 9.01538 31.7634 8.41157Z" fill="black"/>
  <path d="M47.3168 18.6274L44.4988 14.2802L41.6835 18.6274H37.5361L42.4516 11.5493L37.7316 4.67737H41.9824L44.5909 8.73753L47.1995 4.67737H51.3469L46.6409 11.4712L51.5703 18.6274H47.3168Z" fill="black"/>
  <path d="M53.5479 15.9718L54.827 14.4697C56.7317 16.1891 58.5555 17.0474 61.0858 17.0474C63.5379 17.0474 65.155 15.746 65.155 13.9514V13.8985C65.155 12.207 64.2417 11.2456 60.4071 10.4375C56.2178 9.52621 54.2796 8.17468 54.2796 5.18181V5.12886C54.2796 2.26697 56.8099 0.157465 60.2787 0.157465C62.6218 0.0869335 64.9088 0.880634 66.7023 2.38679L65.5013 3.97519C63.8061 2.59579 62.1108 1.99666 60.234 1.99666C57.86 1.99666 56.3491 3.29803 56.3491 4.93937V4.9951C56.3491 6.71447 57.2875 7.67587 61.3037 8.53416C65.3729 9.42032 67.2497 10.9028 67.2497 13.6867V13.7396C67.2497 16.8635 64.6411 18.8922 61.016 18.8922C58.1142 18.8866 55.7403 17.9224 53.5479 15.9718Z" fill="black"/>
  <path d="M70.0562 0.149109H72.0559V7.5031C72.9441 6.04568 74.3517 4.87528 76.6725 4.87528C79.9346 4.87528 81.8366 7.06002 81.8366 10.2619V18.6219H79.8285V10.7663C79.8285 8.25829 78.4739 6.7089 76.1 6.7089C73.7791 6.7089 72.0559 8.40041 72.0559 10.9223V18.6274H70.0479L70.0562 0.149109Z" fill="black"/>
  <path d="M84.7665 11.9618V11.9088C84.796 10.0727 85.5461 8.32126 86.8556 7.03083C88.1651 5.7404 89.9296 5.01388 91.7701 5.00731C93.6106 5.00074 95.3803 5.71465 96.699 6.9957C98.0177 8.27675 98.7803 10.0228 98.823 11.8587V11.9088C98.8275 12.8345 98.6476 13.7518 98.2937 14.6075C97.9398 15.4632 97.419 16.2402 96.7615 16.8933C96.1041 17.5464 95.3231 18.0626 94.464 18.412C93.6049 18.7614 92.6848 18.9369 91.7571 18.9284C90.8367 18.9392 89.9235 18.7665 89.0711 18.4203C88.2186 18.0742 87.444 17.5615 86.7928 16.9126C86.1416 16.2636 85.6269 15.4914 85.279 14.6412C84.931 13.791 84.7568 12.8801 84.7665 11.9618ZM96.7758 11.9618V11.9088C96.7758 9.02186 94.6114 6.6532 91.7682 6.6532C88.8469 6.6532 86.8388 9.02186 86.8388 11.8587V11.9088C86.8388 14.7986 88.9754 17.1394 91.8185 17.1394C94.7287 17.1422 96.7647 14.8014 96.7647 11.9618H96.7758Z" fill="black"/>
  <path d="M101.94 5.1735H103.948V7.87935C105.046 6.26587 106.635 4.88647 109.112 4.88647C112.346 4.88647 115.555 7.43627 115.555 11.8531V11.9033C115.555 16.3034 112.374 18.9034 109.112 18.9034C106.598 18.9034 104.993 17.5518 103.948 16.0415V22.7908H101.94V5.1735ZM113.494 11.9395V11.8866C113.494 8.71256 111.304 6.68108 108.746 6.68108C106.233 6.68108 103.867 8.79058 103.867 11.8615V11.9116C103.867 15.0355 106.241 17.1171 108.746 17.1171C111.344 17.1171 113.48 15.1915 113.48 11.9395H113.494Z" fill="black"/>
  <path d="M118.551 5.44865H120.559V8.15449C121.654 6.54102 123.246 5.16162 125.723 5.16162C128.958 5.16162 132.167 7.71141 132.167 12.1283V12.1784C132.167 16.5786 128.983 19.1785 125.723 19.1785C123.21 19.1785 121.604 17.827 120.559 16.3166V23.0659H118.551V5.44865ZM130.105 12.2147V12.1617C130.105 8.9877 127.913 6.95623 125.357 6.95623C122.844 6.95623 120.481 9.06573 120.481 12.1366V12.1868C120.481 15.3023 122.855 17.3923 125.357 17.3923C127.966 17.3923 130.105 15.4667 130.105 12.2147Z" fill="black"/>
  <path d="M135.203 11.9395V11.8866C135.203 8.01032 137.942 4.88647 141.671 4.88647C145.662 4.88647 147.958 8.06048 147.958 11.9897C147.963 12.2074 147.954 12.4253 147.93 12.6417H137.239C137.518 15.5566 139.585 17.1951 141.987 17.1951C143.838 17.1951 145.142 16.44 146.237 15.2946L147.491 16.4093C146.131 17.9225 144.489 18.9285 141.933 18.9285C138.23 18.9285 135.203 16.1028 135.203 11.9395ZM145.922 11.1592C145.715 8.71256 144.305 6.57798 141.621 6.57798C139.272 6.57798 137.498 8.52864 137.239 11.1592H145.922Z" fill="black"/>
  <path d="M151.234 5.17343H153.245V8.68462C154.233 6.45529 156.191 4.83346 158.747 4.93935V7.09901H158.59C155.644 7.09901 153.245 9.20572 153.245 13.2659V18.6274H151.234V5.17343Z" fill="black"/>
  <path d="M160.062 2.47038C160.06 1.81705 160.319 1.18974 160.78 0.726451C161.242 0.263166 161.869 0.00185754 162.524 9.865e-06C163.179 -0.00183781 163.807 0.255927 164.272 0.716599C164.736 1.17727 164.998 1.80311 165 2.45645V2.47038C165 2.79388 164.936 3.11421 164.812 3.41309C164.688 3.71196 164.506 3.98353 164.277 4.21228C164.047 4.44102 163.775 4.62248 163.476 4.74628C163.176 4.87007 162.855 4.93379 162.531 4.93379C162.207 4.93379 161.886 4.87007 161.586 4.74628C161.287 4.62248 161.014 4.44102 160.785 4.21228C160.556 3.98353 160.374 3.71196 160.25 3.41309C160.126 3.11421 160.062 2.79388 160.062 2.47038ZM164.715 2.47038V2.44252C164.713 1.86457 164.481 1.31102 164.07 0.903653C163.659 0.496286 163.103 0.268468 162.524 0.270316C161.945 0.272164 161.39 0.503526 160.982 0.913505C160.573 1.32349 160.345 1.8785 160.347 2.45645C160.347 3.0344 160.577 3.58868 160.987 3.99735C161.396 4.40603 161.952 4.63562 162.531 4.63562C163.11 4.63562 163.666 4.40603 164.075 3.99735C164.485 3.58868 164.715 3.0344 164.715 2.45645V2.47038ZM161.567 1.15508H162.701C163.26 1.15508 163.668 1.43375 163.668 1.94649C163.674 2.12156 163.62 2.29347 163.513 2.43276C163.407 2.57206 163.255 2.67008 163.084 2.71004L163.751 3.66029H163.17L162.573 2.79642H162.048V3.66029H161.567V1.15508ZM162.659 2.40072C162.986 2.40072 163.17 2.23073 163.17 1.98829C163.17 1.74585 162.986 1.57865 162.659 1.57865H162.048V2.40072H162.659Z" fill="black"/>
</svg>
