<svg xmlns="http://www.w3.org/2000/svg" data-name="Layer 1" viewBox="0 0 436.19 158.77"><path fill="#182d55" d="M103.62 81.89c.57.23 1.14.34 1.71.34.69 0 1.31-.26 1.88-.77.57-.51.86-1.17.86-1.97 0-1.48-.63-3.2-1.88-5.14L66.79 9.26c-.57-.91-.94-1.57-1.11-1.97-.17-.4-.26-.88-.26-1.46V4.8c0-.91.17-1.51.52-1.8.34-.28.91-.43 1.71-.43h43.85c2.06 0 3.51.46 4.37 1.37.86.92 1.28 2.46 1.28 4.63v101.92c0 2.17-.43 3.71-1.28 4.62-.85.92-2.31 1.37-4.37 1.37H89.57c-5.25 0-9.37-.91-12.33-2.74-2.97-1.83-5.94-5.19-8.91-10.11L28.08 37.18c-.57-.23-1.09-.34-1.54-.34-.69 0-1.34.26-1.97.77-.63.51-.94 1.17-.94 1.97 0 1.26.62 2.97 1.88 5.14l39.4 65.09c.57.92.94 1.57 1.11 1.97.17.4.26.89.26 1.46v1.03c0 .8-.14 1.37-.43 1.71-.29.34-.89.51-1.8.51H20.2c-2.06 0-3.51-.46-4.37-1.37-.86-.91-1.28-2.45-1.28-4.62V22.11c0-2.85-.23-4.94-.69-6.25-.46-1.31-1.26-2.51-2.4-3.6-1.14-1.08-3.08-2.54-5.82-4.37-.57-.34-.85-.86-.85-1.54V4.29c0-1.14.69-1.71 2.05-1.71h35.29c5.25 0 9.36.92 12.33 2.74 2.97 1.83 5.94 5.2 8.91 10.11l40.25 66.46zm29.47-37.51c-.69-1.94-1.63-3.54-2.83-4.8-1.2-1.25-3-2.63-5.39-4.11-1.14-.69-1.71-1.43-1.71-2.23v-2.05c0-1.14.68-1.71 2.05-1.71h26.72c7.76 0 13.5.6 17.21 1.8 3.71 1.2 6.62 3.28 8.74 6.25 2.11 2.97 4.14 7.36 6.08 13.19l16.44 49.68c.57.57 1.25.86 2.06.86 1.71 0 2.57-.97 2.57-2.91 0-1.14-.46-3.02-1.37-5.65l-15.42-47.11c-1.48-4.57-2.8-7.54-3.94-8.91-1.03-1.26-1.68-2.08-1.97-2.48-.29-.4-.43-.88-.43-1.46V31.2c0-1.14.69-1.71 2.06-1.71h48.48c4.11 0 6.17 1.49 6.17 4.45 0 2.74-2.91 12.11-8.74 28.09-5.82 15.99-13.76 36.31-23.81 60.98-3.66 9.02-7.25 16.02-10.79 20.98-3.54 4.97-7.45 8.51-11.73 10.62-4.28 2.11-9.34 3.17-15.16 3.17-8.45 0-15.28-1.88-20.47-5.65-5.2-3.77-7.79-8.74-7.79-14.9 0-5.37 2.11-9.71 6.34-13.02 4.22-3.31 9.7-4.97 16.44-4.97 6.28 0 11.42 1.51 15.42 4.54 4 3.02 5.99 6.94 5.99 11.73 0 3.65-1.23 6.48-3.68 8.48-2.46 2-5.91 3-10.36 3-.23.46-.34.97-.34 1.54 0 1.6 1.31 2.4 3.94 2.4 4.45 0 8.16-1.51 11.13-4.54 2.97-3.03 4.45-6.82 4.45-11.39 0-5.37-1.88-9.79-5.65-13.28-3.77-3.48-9.25-5.85-16.44-7.11-4.11-.69-6.8-1.6-8.05-2.74-1.26-1.14-2.57-3.65-3.94-7.54L133.1 44.38zM276.8 53.8c0 4.8 1.14 9.19 3.43 13.19 2.28 4 5.51 7.22 9.68 9.68s8.88 3.68 14.13 3.68c4.68 0 8.82-.77 12.42-2.31 3.6-1.54 7.17-4.14 10.71-7.79.69-.69 1.17-1.11 1.46-1.28.28-.17.71-.26 1.28-.26h2.23c1.26 0 1.89 1.14 1.89 3.43 0 8.56-1.97 16.36-5.91 23.38-3.94 7.02-9.51 12.62-16.7 16.79-7.19 4.17-15.42 6.25-24.66 6.25s-16.73-1.86-23.81-5.57c-7.08-3.71-12.67-8.99-16.79-15.85-4.11-6.85-6.17-14.79-6.17-23.81s2.06-16.47 6.17-23.38c4.11-6.91 10.02-12.39 17.73-16.44 7.71-4.05 16.59-6.08 26.64-6.08 7.19 0 13.62 1.06 19.27 3.17s10.13 5.14 13.45 9.08c3.31 3.94 4.97 8.48 4.97 13.62 0 6.28-2.2 11.51-6.6 15.67-4.4 4.17-10.02 6.25-16.87 6.25-6.4 0-11.79-2.08-16.19-6.25-4.4-4.17-6.6-9.28-6.6-15.33 0-4.45 1.54-8.11 4.63-10.96 3.08-2.85 7.02-4.28 11.82-4.28.34-.57.51-1.14.51-1.71 0-1.6-1.2-2.4-3.6-2.4-5.03 0-9.37 1.91-13.02 5.74-3.66 3.83-5.48 8.42-5.48 13.79zm101.23 23.12c0 2.63 2.23 5.05 6.68 7.28 4.45 2.23 9.42 3.34 14.9 3.34 10.85 0 19.76-3.65 26.72-10.96.69-.69 1.17-1.11 1.46-1.28.28-.17.71-.26 1.28-.26h2.05c.8 0 1.34.29 1.63.86.28.57.43 1.6.43 3.08 0 7.08-1.91 13.62-5.74 19.61-3.83 6-9.25 10.82-16.27 14.47-7.02 3.65-14.88 5.48-23.55 5.48-9.25 0-17.59-1.88-25.01-5.65-7.42-3.77-13.33-9.13-17.73-16.1-4.4-6.96-6.59-14.9-6.59-23.81s2.06-16.62 6.17-23.47c4.11-6.85 9.96-12.25 17.56-16.19 7.59-3.94 16.47-5.91 26.64-5.91 7.65 0 14.53 1.2 20.64 3.6 6.11 2.4 10.93 5.82 14.47 10.28 3.54 4.45 5.31 9.59 5.31 15.42 0 7.42-2.69 13.56-8.05 18.41-5.37 4.86-12.16 7.28-20.38 7.28s-14.9-2.74-20.04-8.22c-.69 0-1.28.26-1.8.77s-.77 1.17-.77 1.97zm5.14-11.82c.68.92 1.6 1.37 2.74 1.37 2.06 0 3.08-1.14 3.08-3.43V38.72c0-2.28-1.03-3.43-3.08-3.43-1.14 0-2.06.46-2.74 1.37v28.43z"/></svg>