<svg width="339" height="186" viewBox="0 0 339 186" fill="none" xmlns="http://www.w3.org/2000/svg">
<path d="M8.77042 179.965V145.986C8.77042 143.134 8.77042 141.372 8.77042 140.7C8.77042 139.862 8.77042 139.275 8.77042 138.939C8.77042 138.603 8.77042 137.932 8.77042 136.925V136.674C8.77042 135.498 8.77042 134.827 8.77042 134.66C8.77042 134.324 8.77042 133.737 8.77042 132.898C8.77042 131.891 8.77042 130.045 8.77042 127.36V114.524C8.77042 111.671 8.77042 109.909 8.77042 109.238C8.77042 108.399 8.77042 107.811 8.77042 107.476C8.77042 107.14 8.77042 106.469 8.77042 105.463V105.21C8.77042 104.036 8.77042 103.365 8.77042 103.198C8.77042 102.862 8.77042 102.274 8.77042 101.435C8.77042 100.428 8.77042 98.5826 8.77042 95.8978V70.9794H39.467C47.1743 70.9794 52.2904 69.6371 54.8152 66.9522C57.473 64.2675 58.8018 60.6598 58.8018 56.1291H0V41.0272L50.2307 0H96.4746V38.5101H112.82V56.1291H96.4746C96.4746 60.6598 97.5377 64.2675 99.6638 66.9522C101.79 69.6371 105.179 70.9794 109.83 70.9794V95.8978C109.83 98.5826 109.83 100.428 109.83 101.435C109.83 102.274 109.83 102.862 109.83 103.198C109.83 103.365 109.83 104.036 109.83 105.21V105.463C109.83 106.469 109.83 107.14 109.83 107.476C109.83 107.811 109.83 108.399 109.83 109.238C109.83 109.909 109.83 111.671 109.83 114.524V127.36C109.83 130.045 109.83 131.891 109.83 132.898C109.83 133.737 109.83 134.324 109.83 134.66C109.83 134.827 109.83 135.498 109.83 136.674V136.925C109.83 137.932 109.83 138.603 109.83 138.939C109.83 139.275 109.83 139.862 109.83 140.7C109.83 141.372 109.83 143.134 109.83 145.986V179.965H8.77042ZM32.8892 38.5101H58.8018V18.1225L32.8892 38.5101Z" fill="#0F172A"/>
<path d="M124.007 179.965V145.986C124.007 143.134 124.007 141.372 124.007 140.7C124.007 139.862 124.007 139.275 124.007 138.939C124.007 138.603 124.007 137.932 124.007 136.925V136.674C124.007 135.498 124.007 134.827 124.007 134.66C124.007 134.324 124.007 133.737 124.007 132.898C124.007 131.891 124.007 130.045 124.007 127.36V114.524C124.007 111.671 124.007 109.909 124.007 109.238C124.007 108.399 124.007 107.811 124.007 107.476C124.007 107.14 124.007 106.469 124.007 105.463V105.21C124.007 104.036 124.007 103.365 124.007 103.198C124.007 102.862 124.007 102.274 124.007 101.435C124.007 100.428 124.007 98.5826 124.007 95.8978V70.9794H154.704C162.411 70.9794 167.527 69.6371 170.052 66.9522C172.71 64.2675 174.039 60.6598 174.039 56.1291H115.236V41.0272L165.468 0H211.712V38.5101H228.056V56.1291H211.712C211.712 60.6598 212.775 64.2675 214.901 66.9522C217.027 69.6371 220.415 70.9794 225.066 70.9794V95.8978C225.066 98.5826 225.066 100.428 225.066 101.435C225.066 102.274 225.066 102.862 225.066 103.198C225.066 103.365 225.066 104.036 225.066 105.21V105.463C225.066 106.469 225.066 107.14 225.066 107.476C225.066 107.811 225.066 108.399 225.066 109.238C225.066 109.909 225.066 111.671 225.066 114.524V127.36C225.066 130.045 225.066 131.891 225.066 132.898C225.066 133.737 225.066 134.324 225.066 134.66C225.066 134.827 225.066 135.498 225.066 136.674V136.925C225.066 137.932 225.066 138.603 225.066 138.939C225.066 139.275 225.066 139.862 225.066 140.7C225.066 141.372 225.066 143.134 225.066 145.986V179.965H124.007ZM148.126 38.5101H174.039V18.1225L148.126 38.5101Z" fill="#0F172A"/>
<path d="M265.521 103.613V60.0052C265.521 59.343 265.718 58.6801 266.068 58.1557L300.492 9.96671C301.366 8.75263 302.874 8.75263 303.749 9.96671L338.129 58.1557C338.501 58.6526 338.698 59.3148 338.698 60.0052V103.613C338.698 106.125 336.228 107.338 334.895 105.463L302.109 59.5367L269.324 105.463C267.991 107.338 265.521 106.151 265.521 103.613Z" fill="#0F172A"/>
<path d="M269.324 184.782L302.115 138.858L334.89 184.782C336.235 186.659 338.698 185.453 338.698 182.934V139.314C338.698 138.632 338.498 137.972 338.136 137.465L303.738 89.2865C302.871 88.0732 301.36 88.0718 300.492 89.2865L266.078 137.487C265.716 137.993 265.515 138.653 265.515 139.335V182.934C265.515 185.461 267.985 186.649 269.324 184.782ZM269.886 140.394L302.115 95.2566L334.328 140.373V175.749L303.738 132.887C302.871 131.674 301.36 131.673 300.492 132.887L269.887 175.751L269.886 140.394Z" fill="#0F172A"/>
</svg>
