<svg width="584" height="303" viewBox="0 0 584 303" fill="none" xmlns="http://www.w3.org/2000/svg">
<path d="M10.783 175.336V142.231C10.783 139.452 10.783 137.735 10.783 137.081C10.783 136.264 10.783 135.692 10.783 135.365C10.783 135.038 10.783 134.384 10.783 133.403V133.158C10.783 132.013 10.783 131.359 10.783 131.196C10.783 130.869 10.783 130.297 10.783 129.479C10.783 128.498 10.783 126.7 10.783 124.084V111.578C10.783 108.798 10.783 107.082 10.783 106.428C10.783 105.611 10.783 105.038 10.783 104.711C10.783 104.384 10.783 103.73 10.783 102.75V102.504C10.783 101.36 10.783 100.706 10.783 100.543C10.783 100.216 10.783 99.6434 10.783 98.826C10.783 97.845 10.783 96.0467 10.783 93.431V69.1536H48.5236C57.9996 69.1536 64.2897 67.8458 67.3939 65.23C70.6615 62.6143 72.2953 59.0994 72.2953 54.6853H0V39.9718L61.7573 0H118.613V37.5195H138.709V54.6853H118.613C118.613 59.0994 119.92 62.6143 122.534 65.23C125.148 67.8458 129.315 69.1536 135.033 69.1536V93.431C135.033 96.0467 135.033 97.845 135.033 98.826C135.033 99.6434 135.033 100.216 135.033 100.543C135.033 100.706 135.033 101.36 135.033 102.504V102.75C135.033 103.73 135.033 104.384 135.033 104.711C135.033 105.038 135.033 105.611 135.033 106.428C135.033 107.082 135.033 108.798 135.033 111.578V124.084C135.033 126.7 135.033 128.498 135.033 129.479C135.033 130.297 135.033 130.869 135.033 131.196C135.033 131.359 135.033 132.013 135.033 133.158V133.403C135.033 134.384 135.033 135.038 135.033 135.365C135.033 135.692 135.033 136.264 135.033 137.081C135.033 137.735 135.033 139.452 135.033 142.231V175.336H10.783ZM40.4364 37.5195H72.2953V17.6563L40.4364 37.5195Z" fill="#0F172A"/>
<path d="M152.463 175.336V142.231C152.463 139.452 152.463 137.735 152.463 137.081C152.463 136.264 152.463 135.692 152.463 135.365C152.463 135.038 152.463 134.384 152.463 133.403V133.158C152.463 132.013 152.463 131.359 152.463 131.196C152.463 130.869 152.463 130.297 152.463 129.479C152.463 128.498 152.463 126.7 152.463 124.084V111.578C152.463 108.798 152.463 107.082 152.463 106.428C152.463 105.611 152.463 105.038 152.463 104.711C152.463 104.384 152.463 103.73 152.463 102.75V102.504C152.463 101.36 152.463 100.706 152.463 100.543C152.463 100.216 152.463 99.6434 152.463 98.826C152.463 97.845 152.463 96.0467 152.463 93.431V69.1536H190.204C199.68 69.1536 205.97 67.8458 209.074 65.23C212.342 62.6143 213.976 59.0994 213.976 54.6853H141.68V39.9718L203.438 0H260.294V37.5195H280.389V54.6853H260.294C260.294 59.0994 261.601 62.6143 264.215 65.23C266.829 67.8458 270.995 69.1536 276.713 69.1536V93.431C276.713 96.0467 276.713 97.845 276.713 98.826C276.713 99.6434 276.713 100.216 276.713 100.543C276.713 100.706 276.713 101.36 276.713 102.504V102.75C276.713 103.73 276.713 104.384 276.713 104.711C276.713 105.038 276.713 105.611 276.713 106.428C276.713 107.082 276.713 108.798 276.713 111.578V124.084C276.713 126.7 276.713 128.498 276.713 129.479C276.713 130.297 276.713 130.869 276.713 131.196C276.713 131.359 276.713 132.013 276.713 133.158V133.403C276.713 134.384 276.713 135.038 276.713 135.365C276.713 135.692 276.713 136.264 276.713 137.081C276.713 137.735 276.713 139.452 276.713 142.231V175.336H152.463ZM182.117 37.5195H213.976V17.6563L182.117 37.5195Z" fill="#0F172A"/>
<path d="M326.451 100.948V58.4618C326.451 57.8166 326.693 57.1708 327.123 56.6599L369.447 9.71046C370.522 8.52762 372.376 8.52762 373.451 9.71046L415.721 56.6599C416.178 57.144 416.42 57.7891 416.42 58.4618V100.948C416.42 103.395 413.383 104.577 411.744 102.75L371.435 58.0053L331.127 102.75C329.488 104.577 326.451 103.421 326.451 100.948Z" fill="#0F172A"/>
<path d="M331.127 180.029L371.442 135.286L411.738 180.029C413.392 181.857 416.421 180.682 416.421 178.228V135.73C416.421 135.066 416.174 134.423 415.73 133.929L373.438 86.9897C372.372 85.8076 370.514 85.8062 369.447 86.9897L327.136 133.95C326.691 134.443 326.444 135.086 326.444 135.751V178.228C326.444 180.69 329.481 181.848 331.127 180.029ZM331.818 136.783L371.442 92.8062L411.047 136.762V171.228L373.438 129.469C372.372 128.287 370.514 128.286 369.447 129.469L331.819 171.23L331.818 136.783Z" fill="#0F172A"/>
<path d="M8.768 282.623V210.17H52.1837V217.953H17.536V242.434H48.9311V250.217H17.536V282.623H8.768Z" fill="#0F172A"/>
<path d="M84.1445 283.755C79.242 283.755 74.9405 282.587 71.24 280.252C67.5631 277.917 64.6876 274.651 62.6134 270.453C60.5628 266.255 59.5375 261.349 59.5375 255.736C59.5375 250.075 60.5628 245.134 62.6134 240.913C64.6876 236.691 67.5631 233.413 71.24 231.078C74.9405 228.743 79.242 227.575 84.1445 227.575C89.047 227.575 93.3368 228.743 97.0137 231.078C100.714 233.413 103.59 236.691 105.64 240.913C107.714 245.134 108.751 250.075 108.751 255.736C108.751 261.349 107.714 266.255 105.64 270.453C103.59 274.651 100.714 277.917 97.0137 280.252C93.3368 282.587 89.047 283.755 84.1445 283.755ZM84.1445 276.255C87.8685 276.255 90.9326 275.299 93.3368 273.389C95.7409 271.479 97.5204 268.967 98.6753 265.854C99.8303 262.74 100.408 259.368 100.408 255.736C100.408 252.104 99.8303 248.719 98.6753 245.582C97.5204 242.446 95.7409 239.91 93.3368 237.976C90.9326 236.042 87.8685 235.075 84.1445 235.075C80.4205 235.075 77.3564 236.042 74.9522 237.976C72.5481 239.91 70.7686 242.446 69.6137 245.582C68.4587 248.719 67.8813 252.104 67.8813 255.736C67.8813 259.368 68.4587 262.74 69.6137 265.854C70.7686 268.967 72.5481 271.479 74.9522 273.389C77.3564 275.299 80.4205 276.255 84.1445 276.255Z" fill="#0F172A"/>
<path d="M121.488 282.623V228.283H129.549V236.49H130.115C131.105 233.802 132.896 231.62 135.489 229.946C138.081 228.271 141.004 227.434 144.257 227.434C144.869 227.434 145.635 227.446 146.555 227.469C147.474 227.493 148.169 227.528 148.641 227.575V236.066C148.358 235.995 147.71 235.889 146.696 235.747C145.706 235.582 144.657 235.5 143.549 235.5C140.91 235.5 138.553 236.054 136.479 237.163C134.428 238.247 132.802 239.757 131.6 241.691C130.421 243.601 129.832 245.783 129.832 248.236V282.623H121.488Z" fill="#0F172A"/>
<path d="M185.551 228.283V235.358H157.409V228.283H185.551ZM165.611 215.264H173.955V267.056C173.955 269.415 174.296 271.184 174.98 272.363C175.687 273.519 176.583 274.297 177.667 274.698C178.775 275.075 179.941 275.264 181.167 275.264C182.086 275.264 182.84 275.217 183.43 275.123C184.019 275.005 184.49 274.91 184.844 274.84L186.541 282.34C185.975 282.552 185.186 282.764 184.172 282.976C183.159 283.212 181.874 283.33 180.318 283.33C177.962 283.33 175.652 282.823 173.389 281.809C171.15 280.795 169.288 279.25 167.803 277.174C166.342 275.099 165.611 272.481 165.611 269.321V215.264Z" fill="#0F172A"/>
<path d="M203.476 303C202.062 303 200.801 302.882 199.693 302.646C198.585 302.434 197.819 302.222 197.395 302.009L199.516 294.651C201.543 295.17 203.334 295.358 204.89 295.217C206.446 295.075 207.825 294.38 209.027 293.13C210.252 291.903 211.372 289.91 212.385 287.151L213.941 282.906L193.859 228.283H202.91L217.901 271.585H218.466L233.457 228.283H242.508L219.456 290.547C218.419 293.354 217.135 295.677 215.603 297.517C214.071 299.38 212.291 300.759 210.264 301.656C208.261 302.552 205.998 303 203.476 303Z" fill="#0F172A"/>
<path d="M254.652 282.623V210.17H298.068V217.953H263.42V242.434H294.815V250.217H263.42V282.623H254.652Z" fill="#0F172A"/>
<path d="M330.029 283.755C325.126 283.755 320.824 282.587 317.124 280.252C313.447 277.917 310.572 274.651 308.497 270.453C306.447 266.255 305.422 261.349 305.422 255.736C305.422 250.075 306.447 245.134 308.497 240.913C310.572 236.691 313.447 233.413 317.124 231.078C320.824 228.743 325.126 227.575 330.029 227.575C334.931 227.575 339.221 228.743 342.898 231.078C346.598 233.413 349.474 236.691 351.524 240.913C353.598 245.134 354.635 250.075 354.635 255.736C354.635 261.349 353.598 266.255 351.524 270.453C349.474 274.651 346.598 277.917 342.898 280.252C339.221 282.587 334.931 283.755 330.029 283.755ZM330.029 276.255C333.753 276.255 336.817 275.299 339.221 273.389C341.625 271.479 343.404 268.967 344.559 265.854C345.714 262.74 346.292 259.368 346.292 255.736C346.292 252.104 345.714 248.719 344.559 245.582C343.404 242.446 341.625 239.91 339.221 237.976C336.817 236.042 333.753 235.075 330.029 235.075C326.305 235.075 323.24 236.042 320.836 237.976C318.432 239.91 316.653 242.446 315.498 245.582C314.343 248.719 313.765 252.104 313.765 255.736C313.765 259.368 314.343 262.74 315.498 265.854C316.653 268.967 318.432 271.479 320.836 273.389C323.24 275.299 326.305 276.255 330.029 276.255Z" fill="#0F172A"/>
<path d="M401.596 260.406V228.283H409.939V282.623H401.596V273.424H401.03C399.757 276.184 397.777 278.531 395.09 280.465C392.403 282.375 389.009 283.33 384.908 283.33C381.514 283.33 378.497 282.587 375.857 281.101C373.217 279.592 371.143 277.328 369.635 274.309C368.126 271.266 367.372 267.434 367.372 262.811V228.283H375.716V262.245C375.716 266.207 376.824 269.368 379.039 271.726C381.278 274.085 384.13 275.264 387.595 275.264C389.669 275.264 391.779 274.733 393.924 273.672C396.092 272.611 397.907 270.983 399.368 268.79C400.853 266.597 401.596 263.802 401.596 260.406Z" fill="#0F172A"/>
<path d="M425.221 282.623V228.283H433.282V236.49H433.848C434.838 233.802 436.629 231.62 439.222 229.946C441.815 228.271 444.737 227.434 447.99 227.434C448.603 227.434 449.369 227.446 450.288 227.469C451.207 227.493 451.903 227.528 452.374 227.575V236.066C452.091 235.995 451.443 235.889 450.429 235.747C449.439 235.582 448.391 235.5 447.283 235.5C444.643 235.5 442.286 236.054 440.212 237.163C438.161 238.247 436.535 239.757 435.333 241.691C434.154 243.601 433.565 245.783 433.565 248.236V282.623H425.221Z" fill="#0F172A"/>
<path d="M510.913 210.17H519.681V258.141C519.681 263.094 518.514 267.516 516.181 271.408C513.871 275.276 510.606 278.33 506.387 280.571C502.168 282.788 497.219 283.896 491.538 283.896C485.858 283.896 480.908 282.788 476.689 280.571C472.47 278.33 469.194 275.276 466.861 271.408C464.551 267.516 463.396 263.094 463.396 258.141V210.17H472.164V257.434C472.164 260.972 472.942 264.12 474.497 266.88C476.053 269.615 478.268 271.773 481.144 273.354C484.043 274.91 487.508 275.689 491.538 275.689C495.569 275.689 499.034 274.91 501.933 273.354C504.832 271.773 507.047 269.615 508.579 266.88C510.135 264.12 510.913 260.972 510.913 257.434V210.17Z" fill="#0F172A"/>
<path d="M536.059 303V228.283H544.12V236.915H545.11C545.722 235.972 546.571 234.769 547.655 233.306C548.763 231.821 550.342 230.5 552.393 229.344C554.467 228.165 557.272 227.575 560.807 227.575C565.38 227.575 569.41 228.719 572.899 231.007C576.387 233.295 579.109 236.538 581.065 240.736C583.022 244.934 584 249.887 584 255.594C584 261.349 583.022 266.337 581.065 270.559C579.109 274.757 576.399 278.012 572.934 280.323C569.469 282.611 565.474 283.755 560.949 283.755C557.46 283.755 554.667 283.177 552.57 282.021C550.472 280.842 548.857 279.509 547.726 278.023C546.595 276.514 545.722 275.264 545.11 274.273H544.403V303H536.059ZM544.261 255.453C544.261 259.556 544.862 263.177 546.064 266.314C547.266 269.427 549.022 271.868 551.332 273.637C553.642 275.382 556.47 276.255 559.817 276.255C563.306 276.255 566.216 275.335 568.55 273.495C570.907 271.632 572.675 269.132 573.853 265.995C575.055 262.835 575.656 259.321 575.656 255.453C575.656 251.632 575.067 248.189 573.888 245.122C572.734 242.033 570.978 239.592 568.621 237.799C566.287 235.983 563.353 235.075 559.817 235.075C556.423 235.075 553.571 235.936 551.261 237.658C548.952 239.356 547.207 241.738 546.029 244.804C544.85 247.847 544.261 251.396 544.261 255.453Z" fill="#0F172A"/>
</svg>
